<?xml version="1.0" standalone="no"?>
<!DOCTYPE svg PUBLIC "-//W3C//DTD SVG 20010904//EN"
        "http://www.w3.org/TR/2001/REC-SVG-20010904/DTD/svg10.dtd">
<svg version="1.0" xmlns="http://www.w3.org/2000/svg"
     width="440.000000pt" height="440.000000pt" viewBox="0 0 440.000000 440.000000"
     preserveAspectRatio="xMidYMid meet">
    <metadata>
        Created by potrace 1.14, written by Peter Selinger 2001-2017
    </metadata>
    <g transform="translate(0.000000,440.000000) scale(0.100000,-0.100000)"
       fill="#000000" stroke="none">
        <path d="M1865 3766 c-93 -29 -153 -72 -199 -140 -63 -92 -81 -202 -51 -304 9
-28 61 -144 117 -257 106 -216 121 -235 183 -235 53 0 84 30 220 216 169 229
179 250 180 369 0 79 -4 98 -29 153 -41 89 -125 165 -212 192 -74 23 -150 25
-209 6z m191 -130 c116 -54 170 -179 129 -295 -13 -37 -251 -379 -265 -380 -3
-1 -47 87 -99 195 -109 225 -118 265 -81 351 56 131 192 187 316 129z"/>
        <path d="M666 3165 c-144 -37 -294 -150 -359 -272 -36 -68 -67 -191 -67 -267
1 -192 116 -390 282 -484 128 -73 306 -90 447 -43 35 12 219 111 408 219 360
205 383 222 383 285 0 63 -19 78 -372 304 -247 157 -363 225 -413 242 -89 30
-225 37 -309 16z m274 -131 c39 -15 690 -420 690 -429 0 -2 -150 -89 -333
-194 -345 -197 -400 -221 -502 -221 -236 1 -436 201 -435 435 1 192 135 368
320 420 69 19 198 14 260 -11z"/>
        <path d="M2980 3156 c-19 -8 -244 -111 -500 -229 -332 -153 -478 -226 -509
-253 -78 -68 -79 -69 -133 -654 -27 -289 -47 -548 -44 -576 5 -64 33 -118 83
-165 41 -39 839 -606 895 -636 23 -12 56 -17 108 -18 l75 0 490 227 c344 158
503 237 533 263 46 40 76 90 85 145 16 90 98 1060 93 1098 -7 52 -36 111 -74
148 -34 34 -848 610 -901 638 -46 24 -154 31 -201 12z m134 -116 c39 -14 847
-586 883 -625 18 -19 35 -45 39 -59 7 -28 -82 -1034 -96 -1086 -5 -20 -22 -48
-37 -62 -31 -29 -950 -457 -1000 -465 -17 -3 -45 -1 -61 5 -41 14 -876 606
-902 639 -11 14 -23 36 -26 49 -7 27 82 1034 96 1084 5 20 22 48 37 62 21 19
817 396 968 459 28 11 69 11 99 -1z"/>
    </g>
</svg>
